 <svg width="24" height="24"  viewBox="0 0 397 422" version="1.1" xmlns="http://www.w3.org/2000/svg" xmlns:xlink="http://www.w3.org/1999/xlink">
    <!-- Generator: Sketch 52.5 (67469) - http://www.bohemiancoding.com/sketch -->
 
    <g id="Page-1" stroke="none" stroke-width="1" fill="none" fill-rule="evenodd">
        <g id="keep" fill-rule="nonzero">
            <path d="M392.913751,141.808097 L264.737447,4.39115099 C262.097409,1.55948409 258.587246,0 254.858564,0 C251.127904,0 247.61873,1.55948409 244.979681,4.39115099 L207.154961,44.9440983 C204.514923,47.7747051 203.06043,51.5371857 203.06043,55.5371405 C203.06043,59.5381554 204.514923,63.2995759 207.154961,66.1301827 L212.667399,72.02675 L118.0878,173.433502 L15.142149,200.694259 C10.2536297,201.988705 6.37860802,206.021525 5.02991459,211.221572 C3.67825482,216.42586 5.05067893,222.021344 8.61126914,225.827291 L85.9070256,308.70682 L4.09453043,396.423825 C1.4544927,399.254432 0,403.016912 0,407.014747 C0,411.014701 1.4544927,414.777182 4.09453043,417.607789 C6.73555694,420.438396 10.2437419,422 13.974402,422 C17.705062,422 21.213247,420.438396 23.8542735,417.607789 L105.66578,329.892905 L182.976368,412.775614 C186.492463,416.550817 191.637076,418.076376 196.617552,416.614426 C201.453666,415.171559 205.213989,411.015762 206.421287,405.772248 L231.836842,295.406149 L232.228398,294.986329 L326.416441,193.999397 L335.331265,203.557731 C337.933729,206.346991 341.534859,207.947821 345.212125,207.947821 C348.942785,207.947821 352.451959,206.388337 355.091008,203.557731 L392.914739,162.994182 C398.361918,157.153802 398.361918,147.651657 392.913751,141.808097 Z M185.229793,372.815292 L45.881285,223.416504 L120.912739,203.547129 L203.753564,292.376233 L185.229793,372.815292 Z M219.207178,266.574246 L144.977623,186.976948 L232.425165,93.2149547 L306.653731,172.811192 L219.207178,266.574246 Z M345.211136,171.775424 L236.796553,55.5350202 L254.858564,36.1702775 L363.274136,152.40114 L345.211136,171.775424 Z" id="Shape"></path>
        </g>
    </g>
</svg>